<svg width="2468" height="2716" viewBox="0 0 2468 2716" fill="none" xmlns="http://www.w3.org/2000/svg">
<path fill-rule="evenodd" clip-rule="evenodd" d="M2281.67 2366.34C2286.1 2366.26 2296.05 2366.66 2303.79 2367.22C2311.54 2367.78 2322.39 2369.17 2327.92 2370.29C2333.45 2371.41 2342.05 2373.68 2347.03 2375.33C2352 2376.99 2361.74 2381.07 2368.64 2384.38C2375.56 2387.71 2386.42 2393.88 2392.78 2398.09C2401.44 2403.82 2407.76 2409.16 2417.99 2419.4C2428.22 2429.63 2433.57 2435.96 2439.3 2444.62C2443.51 2450.97 2448.99 2460.49 2451.47 2465.74C2453.97 2471 2457.44 2479.59 2459.19 2484.84C2460.93 2490.1 2463.2 2498.24 2464.21 2502.94C2465.23 2507.65 2466.6 2516.47 2467.25 2522.55C2467.94 2529 2468.19 2538.86 2467.84 2546.19C2467.51 2553.1 2466.53 2562.83 2465.67 2567.81C2464.81 2572.78 2462.78 2581.83 2461.18 2587.92C2459.57 2594 2456.41 2603.5 2454.16 2609.04C2451.91 2614.57 2447.97 2622.71 2445.43 2627.14C2442.89 2631.56 2438.44 2638.35 2435.57 2642.22C2432.68 2646.09 2427.51 2652.43 2424.09 2656.3C2420.66 2660.17 2414.58 2666.19 2410.59 2669.68C2406.6 2673.17 2398.36 2679.37 2392.27 2683.46C2386.19 2687.54 2376 2693.35 2369.65 2696.34C2363.3 2699.35 2354.47 2702.98 2350.04 2704.42C2345.62 2705.87 2338.16 2707.94 2333.45 2709.03C2328.75 2710.14 2319.48 2711.75 2312.84 2712.63C2305.66 2713.58 2293.45 2714.22 2282.68 2714.22C2271.31 2714.22 2260.29 2713.62 2253.02 2712.58C2246.66 2711.68 2236.48 2709.68 2230.4 2708.13C2224.31 2706.58 2214.81 2703.62 2209.28 2701.56C2203.75 2699.5 2195.39 2695.84 2190.68 2693.44C2185.98 2691.04 2178.29 2686.51 2173.59 2683.38C2168.88 2680.25 2161.23 2674.46 2156.58 2670.51C2151.93 2666.57 2144.98 2659.72 2141.14 2655.29C2137.31 2650.87 2131.15 2642.72 2127.46 2637.19C2123.76 2631.66 2118.85 2623.3 2116.56 2618.59C2114.26 2613.88 2110.57 2604.61 2108.36 2597.97C2106.13 2591.34 2103.4 2581.38 2102.26 2575.85C2101.13 2570.32 2099.65 2559.01 2099 2550.71C2098.07 2539.09 2098.06 2532.63 2098.98 2522.55C2099.63 2515.36 2101.36 2504.73 2102.82 2498.92C2104.27 2493.12 2106.94 2484.52 2108.73 2479.82C2110.53 2475.11 2114.6 2466.06 2117.79 2459.7C2120.97 2453.35 2125.41 2445.42 2127.63 2442.11C2129.86 2438.79 2138.96 2428.77 2147.86 2419.85C2159.17 2408.52 2166.61 2401.97 2172.58 2398.1C2177.29 2395.05 2184.97 2390.65 2189.68 2388.3C2194.38 2385.94 2202.97 2382.09 2208.78 2379.73C2214.59 2377.36 2222.5 2374.51 2226.37 2373.37C2230.25 2372.25 2237.49 2370.57 2242.46 2369.65C2247.44 2368.73 2256.49 2367.64 2262.57 2367.23C2268.65 2366.82 2277.25 2366.41 2281.67 2366.34V2366.34ZM2239.45 2445.62C2232.81 2448.89 2224.21 2454 2220.34 2456.97C2216.47 2459.93 2210.82 2465.32 2207.77 2468.95C2204.73 2472.58 2200.14 2479.1 2197.59 2483.46C2195.03 2487.82 2191.52 2494.66 2189.8 2498.67C2187.82 2503.27 2186.25 2509.22 2185.53 2514.76C2184.85 2520.14 2184.62 2532.15 2184.93 2545.68C2185.32 2562.7 2185.84 2569.08 2187.17 2573.34C2188.12 2576.38 2191.05 2583.17 2193.69 2588.42C2196.31 2593.68 2201.18 2601.59 2204.49 2606.02C2207.79 2610.44 2212.71 2616.03 2215.43 2618.46C2218.13 2620.87 2223.06 2624.68 2226.37 2626.94C2229.69 2629.19 2235.57 2632.54 2239.45 2634.38C2243.32 2636.21 2250.56 2638.89 2255.53 2640.33C2262.85 2642.44 2267.47 2643.05 2279.66 2643.46C2291.51 2643.85 2296.58 2643.59 2303.29 2642.23C2308 2641.29 2315.24 2639.2 2319.38 2637.61C2323.53 2636.02 2330.32 2632.71 2334.46 2630.26C2338.61 2627.81 2345.05 2623.16 2348.77 2619.94C2352.5 2616.71 2357.87 2611.12 2360.71 2607.53C2363.55 2603.94 2367.31 2598.51 2369.07 2595.46C2370.83 2592.42 2373.5 2586.98 2375.02 2583.39C2376.54 2579.8 2378.7 2573.47 2379.84 2569.31C2381.39 2563.6 2382.02 2557.51 2382.42 2544.17C2382.84 2530.12 2382.6 2524.76 2381.23 2517.53C2380.3 2512.55 2378.2 2504.86 2376.57 2500.43C2374.94 2496.01 2371.98 2489.44 2369.99 2485.85C2368.01 2482.26 2364.46 2476.83 2362.12 2473.78C2359.78 2470.75 2354.97 2465.54 2351.43 2462.22C2347.89 2458.9 2341.84 2454.06 2337.97 2451.48C2334.11 2448.88 2327.54 2445.2 2323.4 2443.29C2319.25 2441.38 2313.49 2439.31 2310.58 2438.7C2307.49 2438.04 2295.81 2437.62 2282.43 2437.68C2269.85 2437.74 2257.74 2438.2 2255.53 2438.72C2253.32 2439.23 2246.08 2442.34 2239.45 2445.62V2445.62ZM175.273 2370.3C187.992 2370.26 203.607 2370.69 209.961 2371.27C216.315 2371.85 225.596 2373.17 230.572 2374.19C235.549 2375.2 243.241 2377.26 247.665 2378.77C252.089 2380.28 261.369 2384.39 268.277 2387.92C275.194 2391.45 285.118 2397.39 290.336 2401.13C295.554 2404.86 304.09 2411.99 309.299 2416.97C317.976 2425.25 318.679 2426.21 317.654 2428.28C317.04 2429.53 313.26 2434.27 309.258 2438.84C305.257 2443.4 295.434 2454.15 287.43 2462.72C279.427 2471.3 272.52 2478.42 272.087 2478.56C271.645 2478.7 267.331 2475.13 262.495 2470.63C257.659 2466.14 250.742 2460.38 247.132 2457.81C243.523 2455.26 237.188 2451.5 233.056 2449.46C228.924 2447.41 222.147 2444.63 218.004 2443.28C213.852 2441.93 207.065 2440.28 202.923 2439.59C198.107 2438.81 189.922 2438.54 180.3 2438.87C169.07 2439.24 163.298 2439.92 157.678 2441.54C153.525 2442.73 145.613 2445.89 140.083 2448.56C134.553 2451.24 126.63 2456.1 122.487 2459.38C118.335 2462.67 112.875 2467.81 110.332 2470.83C107.798 2473.83 104.329 2478.34 102.64 2480.82C100.941 2483.32 97.7033 2489.19 95.4411 2493.89C93.1688 2498.6 90.1122 2506.97 88.6242 2512.5C86.201 2521.58 85.9296 2524.3 85.8793 2540.65C85.829 2556.29 86.1407 2559.99 88.1114 2567.81C89.3682 2572.78 91.9823 2580.7 93.9128 2585.4C95.8332 2590.11 99.5433 2597.35 102.147 2601.49C104.751 2605.65 109.829 2612.15 113.428 2615.95C117.028 2619.77 122.689 2624.82 126.006 2627.2C129.324 2629.58 135.88 2633.33 140.585 2635.53C145.291 2637.75 152.972 2640.59 157.678 2641.87C165.128 2643.88 168.486 2644.17 183.819 2644.13C198.368 2644.08 202.722 2643.71 208.955 2642C213.098 2640.85 220.116 2638.53 224.54 2636.83C228.964 2635.13 236.655 2631.04 241.632 2627.74C246.609 2624.43 254.301 2618.55 258.725 2614.66C263.149 2610.77 267.452 2607.59 268.277 2607.59C269.101 2607.6 273.806 2611.55 278.713 2616.37C283.63 2621.18 293.925 2631.91 301.607 2640.21C309.278 2648.51 315.552 2656.09 315.542 2657.05C315.542 2658.02 312.255 2661.81 308.243 2665.48C304.231 2669.14 295.976 2675.75 289.894 2680.15C283.811 2684.56 275.214 2690.35 270.79 2693.03C266.366 2695.72 257.086 2700.16 250.179 2702.93C243.261 2705.68 233.539 2709.11 228.562 2710.56C223.585 2712 214.083 2713.89 207.447 2714.75C198.368 2715.94 189.912 2716.21 173.262 2715.85C158.703 2715.53 147.875 2714.77 141.591 2713.64C136.342 2712.68 125.936 2709.91 118.466 2707.46C111.005 2705.02 100.368 2700.81 94.8378 2698.09C89.3079 2695.38 80.7113 2690.46 75.7344 2687.17C70.7575 2683.87 63.0658 2678.04 58.6419 2674.21C54.2179 2670.39 47.3005 2663.43 43.2586 2658.76C39.2268 2654.09 33.2042 2646.19 29.8862 2641.21C26.5683 2636.24 21.6517 2627.64 18.9571 2622.11C16.2524 2616.58 12.482 2607.53 10.5717 2602C8.6513 2596.47 5.92656 2586.73 4.50888 2580.38C3.09121 2574.02 1.40207 2563.83 0.74853 2557.75C0.0648293 2551.35 -0.186531 2541.18 0.145265 2533.62C0.467006 2526.43 1.7037 2515.56 2.89012 2509.48C4.07654 2503.4 6.37901 2494.35 8.00782 2489.37C9.63664 2484.39 13.3568 2475.34 16.2625 2469.26C19.1783 2463.17 24.0949 2454.35 27.1917 2449.65C30.2884 2444.94 36.4116 2436.81 40.7953 2431.55C45.169 2426.3 52.2674 2418.83 56.5506 2414.95C60.8438 2411.08 67.8216 2405.33 72.0545 2402.16C76.2874 2399.01 84.9543 2393.73 91.3187 2390.43C97.6832 2387.14 106.28 2383.1 110.422 2381.45C114.575 2379.81 122.487 2377.22 128.017 2375.71C133.547 2374.2 141.239 2372.38 145.11 2371.67C149.383 2370.89 161.227 2370.36 175.273 2370.3V2370.3Z" fill="black"/>
<path fill-rule="evenodd" clip-rule="evenodd" d="M200.912 0C201.465 0 208.04 6.44591 215.521 14.3298C223.011 22.2138 236.243 35.3771 244.93 43.5828C253.627 51.7885 267.683 64.4591 276.179 71.7397C284.675 79.0202 297.344 89.4282 304.331 94.8786C311.319 100.329 323.827 109.661 332.122 115.624C340.417 121.577 354.443 131.191 363.291 136.973C372.138 142.755 386.617 151.796 395.465 157.055C404.313 162.314 418.791 170.621 427.639 175.508C436.487 180.395 457.299 191.054 473.889 199.19C490.479 207.325 511.633 217.19 520.894 221.122C530.154 225.054 545.316 231.158 554.576 234.677C563.836 238.207 580.697 244.12 592.029 247.831C603.36 251.541 622.142 257.283 633.754 260.592C645.367 263.9 668.211 269.954 684.529 274.037C700.848 278.13 725.049 283.942 738.32 286.969C751.592 289.996 779.423 296.1 800.155 300.534C820.897 304.969 876.086 316.342 922.819 325.815C969.552 335.288 1023.61 346.43 1042.97 350.573C1062.32 354.726 1087.66 360.358 1099.27 363.093C1110.89 365.828 1127.85 370.082 1136.98 372.535C1146.11 374.989 1159.23 378.78 1166.14 380.952C1173.05 383.124 1184.59 387.046 1191.77 389.671C1198.96 392.286 1212.08 397.575 1220.93 401.406C1229.78 405.248 1243.35 411.674 1251.1 415.696C1258.84 419.718 1270.15 426.114 1276.23 429.915C1282.31 433.716 1291.77 440.011 1297.25 443.923C1302.72 447.825 1312.9 455.739 1319.87 461.521C1326.84 467.293 1341.14 480.648 1351.67 491.187C1362.2 501.725 1375.34 515.995 1380.88 522.913C1386.42 529.822 1396.06 543.176 1402.3 552.579C1408.56 561.981 1420.25 580.756 1428.29 594.311C1436.34 607.867 1450.87 632.293 1460.58 648.614C1470.29 664.935 1484.44 687.561 1492.02 698.894C1499.6 710.227 1509.79 724.486 1514.65 730.57C1519.52 736.654 1530.54 748.701 1539.12 757.339C1547.71 765.988 1559.26 776.627 1564.79 781.001C1570.32 785.365 1579.37 791.932 1584.9 795.572C1590.43 799.213 1599.03 804.492 1604.01 807.298C1608.98 810.103 1618.25 814.639 1624.62 817.374C1630.98 820.109 1640.03 823.508 1644.73 824.926C1649.42 826.344 1656.89 828.214 1661.32 829.079C1665.74 829.944 1669.48 830.527 1669.63 830.386C1669.78 830.246 1662.09 826.102 1652.54 821.195C1642.99 816.278 1630.87 809.751 1625.62 806.694C1620.37 803.637 1611.55 798.117 1606.02 794.426C1600.49 790.725 1591.44 784.068 1585.91 779.634C1580.38 775.189 1570.2 765.716 1563.29 758.586C1556.38 751.446 1546.91 740.868 1542.26 735.075C1537.61 729.273 1532.18 722.123 1530.2 719.177C1527.33 714.933 1526.81 713.465 1527.67 712.138C1528.27 711.212 1536.7 705.028 1546.42 698.391C1556.15 691.754 1567.88 683.357 1572.5 679.727C1577.11 676.107 1585.63 669.027 1591.44 663.999C1597.25 658.971 1609.25 647.457 1618.12 638.407C1627 629.366 1637.66 617.892 1641.82 612.915C1645.98 607.937 1655.23 596.403 1662.38 587.272C1669.53 578.141 1679.87 565.249 1685.37 558.612C1690.86 551.975 1700.59 540.662 1706.99 533.482C1713.39 526.302 1724.29 514.818 1731.19 507.97C1738.11 501.112 1748.74 491.317 1754.82 486.189C1760.91 481.06 1770.86 473.377 1776.94 469.114C1783.02 464.85 1792.07 458.967 1797.05 456.031C1802.03 453.094 1811.76 447.865 1818.67 444.406C1825.59 440.947 1837.12 435.768 1844.31 432.882C1851.5 429.996 1862.35 426.215 1868.44 424.465C1874.52 422.725 1884.24 420.412 1890.05 419.316C1895.87 418.23 1904.68 416.883 1909.66 416.329C1914.64 415.786 1927.65 415.324 1938.57 415.324C1949.49 415.314 1962.84 415.797 1968.23 416.38C1973.62 416.963 1982.55 418.341 1988.08 419.447C1993.61 420.553 2003.57 423.268 2010.2 425.48C2016.84 427.703 2026.79 431.776 2032.32 434.551C2037.85 437.316 2047.36 442.908 2053.44 446.96C2059.52 451.013 2068.94 458.112 2074.37 462.728C2079.8 467.344 2087.95 474.192 2092.47 477.943C2097.37 482.005 2104.57 486.661 2110.25 489.447C2118.02 493.268 2124.29 495.229 2143.93 500.006C2157.2 503.234 2172.36 507.296 2177.61 509.036C2182.86 510.776 2192.14 514.758 2198.22 517.875C2204.3 520.993 2214.03 526.634 2219.84 530.405C2225.65 534.166 2235.37 540.954 2241.46 545.479C2247.54 550.004 2256.02 556.732 2260.31 560.432C2264.59 564.133 2268.35 568.175 2268.67 569.422C2268.99 570.669 2269.1 571.816 2268.92 571.987C2268.74 572.148 2250.96 572.691 2229.39 573.183C2207.82 573.676 2185.43 574.571 2179.62 575.174C2173.81 575.768 2165.44 576.954 2161.02 577.809C2156.6 578.664 2146.87 580.947 2139.4 582.877C2131.93 584.808 2119.73 588.67 2112.26 591.445C2104.79 594.231 2091.44 600.033 2082.6 604.347C2073.75 608.661 2061.53 615.228 2055.45 618.928C2049.37 622.639 2039.86 628.894 2034.33 632.836C2028.81 636.788 2019.08 644.37 2012.72 649.7C2006.35 655.029 1995.32 665.447 1988.19 672.859C1981.06 680.26 1971.41 691.08 1966.76 696.883C1962.11 702.685 1955.68 711.293 1952.46 715.989C1949.24 720.685 1944.01 728.83 1940.83 734.09C1937.65 739.349 1932.11 749.526 1928.51 756.716C1924.92 763.906 1919.75 775.219 1917.03 781.856C1914.32 788.493 1909.66 801.385 1906.68 810.516C1903.72 819.646 1898.99 836.39 1896.2 847.723C1893.39 859.056 1887.9 885.765 1884 907.053C1880.09 928.342 1874.63 957.082 1871.87 970.909C1869.1 984.736 1864.81 1005.1 1862.32 1016.16C1859.84 1027.22 1855.75 1044.19 1853.22 1053.87C1850.71 1063.55 1846.62 1078.04 1844.15 1086.05C1841.67 1094.07 1837.58 1106.51 1835.06 1113.7C1832.52 1120.89 1827.18 1134.47 1823.18 1143.87C1819.18 1153.28 1813.08 1166.62 1809.62 1173.54C1806.16 1180.45 1800.61 1190.85 1797.28 1196.67C1793.95 1202.48 1786.94 1213.79 1781.69 1221.81C1776.44 1229.82 1767.5 1242.5 1761.82 1249.96C1756.14 1257.43 1746.85 1268.97 1741.16 1275.61C1735.48 1282.24 1723.33 1295.16 1714.17 1304.29C1705 1313.43 1692.31 1325.37 1685.95 1330.82C1679.58 1336.27 1668.5 1345.32 1661.32 1350.92C1654.13 1356.52 1640.78 1366.11 1631.66 1372.25C1622.53 1378.37 1609.87 1386.46 1603.5 1390.22C1597.14 1393.98 1584.03 1401.28 1574.35 1406.45C1564.67 1411.61 1550.42 1418.61 1542.67 1422C1534.93 1425.39 1522.03 1430.4 1514.02 1433.13C1506.01 1435.87 1491.98 1440.11 1482.85 1442.56C1473.72 1445.01 1462.19 1447.71 1457.21 1448.56C1452.23 1449.41 1446.8 1450.07 1445.15 1450.02C1442.76 1449.96 1444.66 1448.73 1454.2 1444.16C1460.83 1440.97 1470.56 1435.7 1475.81 1432.44C1481.06 1429.18 1489.67 1423.25 1494.92 1419.26C1500.16 1415.26 1508.62 1408.24 1513.7 1403.64C1518.77 1399.03 1526.42 1391.42 1530.7 1386.73C1534.97 1382.03 1541.12 1374.67 1544.34 1370.38C1547.86 1365.72 1550.21 1361.59 1550.21 1360.08C1550.21 1358.15 1549 1356.79 1544.94 1354.18C1542.03 1352.33 1537.85 1349.8 1531.61 1346.31L1518.54 1352.55C1511.35 1355.97 1500.73 1360.69 1494.92 1363.03C1489.1 1365.38 1480.06 1368.49 1474.81 1369.95C1469.56 1371.41 1461.18 1373.35 1456.21 1374.27C1449.94 1375.41 1438.95 1376.08 1420.51 1376.42C1403.37 1376.74 1390.28 1376.51 1383.81 1375.75C1378.28 1375.1 1370.37 1373.87 1366.22 1373.02C1362.08 1372.16 1354.37 1370.1 1349.13 1368.43C1343.88 1366.76 1333.92 1362.71 1327.01 1359.41C1320.1 1356.13 1310.14 1350.57 1304.89 1347.09C1299.62 1343.6 1289.98 1335.62 1283.38 1329.3C1276.81 1323 1267.99 1313.26 1263.77 1307.66C1259.57 1302.04 1253.3 1292.54 1249.85 1286.54C1246.41 1280.52 1241.6 1271.08 1239.19 1265.55C1236.77 1260.02 1233.39 1251.42 1231.68 1246.44C1229.97 1241.47 1227.24 1232.19 1225.6 1225.83C1223.96 1219.46 1221.69 1208.6 1220.55 1201.69C1219.41 1194.78 1218.02 1183.93 1217.45 1177.56C1216.88 1171.2 1216.42 1158.07 1216.42 1148.4C1216.43 1138.71 1216.9 1125.37 1217.46 1118.73C1218.04 1112.1 1219.4 1100.78 1220.49 1093.59C1221.59 1086.4 1223.88 1074.86 1225.58 1067.95C1227.29 1061.03 1230.27 1050.85 1232.22 1045.32C1234.17 1039.79 1238.12 1030.29 1240.99 1024.21C1243.87 1018.12 1248.75 1009.07 1251.86 1004.09C1254.97 999.116 1260.41 991.423 1263.97 986.999C1267.51 982.574 1274.44 975.153 1279.36 970.497C1284.28 965.841 1291.46 959.817 1295.34 957.092C1299.21 954.377 1305.99 950.174 1310.42 947.76C1314.84 945.347 1322.98 941.576 1328.51 939.384C1334.04 937.181 1342.64 934.245 1347.62 932.857C1352.6 931.459 1361.53 929.388 1367.48 928.242C1373.42 927.095 1384.73 925.667 1392.61 925.054C1402.77 924.269 1410.9 924.259 1420.51 925.003C1427.97 925.577 1438.61 926.954 1444.14 928.071C1449.67 929.177 1458.5 931.52 1463.75 933.269C1469 935.019 1476.92 938.267 1481.34 940.49C1485.77 942.712 1492.1 946.352 1495.42 948.565C1498.74 950.787 1505.3 956.509 1510 961.286C1514.69 966.052 1521.32 974.017 1524.7 978.984C1528.08 983.942 1534.38 994.34 1538.68 1002.08C1542.99 1009.83 1548.35 1018.78 1550.62 1021.98C1552.89 1025.18 1555.19 1027.81 1555.74 1027.81C1556.3 1027.81 1557.73 1025.63 1558.91 1022.99C1560.1 1020.34 1561.98 1015.24 1563.08 1011.64C1564.19 1008.04 1566.69 997.859 1568.65 989.01C1570.63 980.161 1573.6 964.996 1575.27 955.322C1576.95 945.638 1579.21 930.936 1580.3 922.64C1581.38 914.344 1582.79 900.768 1583.41 892.472C1584.05 884.176 1584.41 875.437 1583.9 868.72L1570.83 864.396C1563.64 862.013 1554.14 858.614 1549.71 856.844C1545.29 855.064 1536.24 850.79 1529.6 847.341C1522.97 843.892 1512.34 837.657 1505.98 833.484C1499.61 829.31 1490.95 823.226 1486.74 819.968C1482.52 816.7 1473.92 809.45 1467.64 803.859C1461.34 798.257 1452.33 789.428 1447.6 784.249C1442.86 779.06 1436.05 771.197 1432.45 766.772C1428.85 762.347 1423.15 754.876 1419.77 750.179C1416.4 745.483 1409.6 735.297 1404.67 727.553C1399.74 719.81 1388.77 701.488 1380.3 686.826C1371.82 672.165 1360.85 653.843 1355.92 646.1C1350.99 638.356 1343.39 627.043 1339.02 620.96C1334.66 614.876 1327.13 604.92 1322.28 598.836C1317.42 592.752 1306.21 580.504 1297.36 571.625C1288.51 562.745 1276.28 551.523 1270.2 546.686C1264.12 541.859 1253.26 533.925 1246.07 529.047C1238.88 524.18 1227.91 517.191 1221.69 513.511C1215.46 509.83 1203.59 503.425 1195.29 499.282C1187 495.128 1174.67 489.407 1167.9 486.561C1161.12 483.715 1149.01 479.009 1141 476.092C1132.99 473.176 1118.39 468.269 1108.57 465.182C1098.76 462.084 1079.31 456.453 1065.34 452.642C1051.37 448.841 1027.51 442.767 1012.3 439.137C997.091 435.506 971.311 429.593 954.993 425.993C938.675 422.393 911.99 416.681 895.672 413.293C879.354 409.904 849.271 403.759 828.81 399.626C808.349 395.503 778.267 389.158 761.948 385.538C745.63 381.908 720.745 376.055 706.649 372.525C692.553 369.006 670.604 363.133 657.885 359.493C645.166 355.853 624.354 349.447 611.635 345.264C598.916 341.07 579.461 334.252 568.401 330.089C557.341 325.936 541.274 319.621 532.708 316.051C524.141 312.481 507.843 305.301 496.512 300.092C485.18 294.883 467.756 286.275 457.802 280.975C447.848 275.676 433.601 267.691 426.131 263.247C418.66 258.792 406.897 251.451 399.989 246.936C393.072 242.421 381.761 234.607 374.853 229.569C367.936 224.531 356.403 215.581 349.214 209.688C342.025 203.785 329.588 192.945 321.565 185.594C313.541 178.243 305.277 170.701 303.185 168.821C301.094 166.95 299.163 165.764 298.912 166.176C298.651 166.588 299.857 170.208 301.587 174.221C303.316 178.233 308.595 188.752 313.31 197.601C318.026 206.45 324.37 217.984 327.406 223.244C330.443 228.493 335.45 236.87 338.527 241.847C341.613 246.825 348.018 256.107 352.774 262.462C357.519 268.818 364.98 278.321 369.353 283.58C373.717 288.839 384.103 300.082 392.418 308.579C400.723 317.066 412.286 328.128 418.087 333.156C423.889 338.184 434.074 346.34 440.71 351.287C447.345 356.225 457.752 363.545 463.835 367.548C469.918 371.54 480.998 378.338 488.468 382.642C495.939 386.946 513.584 396.248 527.68 403.297C541.777 410.356 559.653 418.854 567.395 422.192C575.137 425.541 587.585 430.519 595.045 433.264C602.505 436.019 615.174 440.293 623.197 442.777C631.221 445.261 647.73 449.806 659.896 452.863C672.062 455.93 692.653 460.697 705.644 463.462C718.634 466.217 741.256 470.763 755.916 473.548C770.575 476.334 802.246 482.227 826.297 486.651C850.347 491.076 884.733 497.663 902.71 501.303C920.677 504.933 947.603 510.645 962.534 513.984C977.465 517.332 999.635 522.561 1011.8 525.608C1023.97 528.655 1043.42 533.854 1055.03 537.153C1066.65 540.451 1085.42 546.233 1096.76 549.994C1108.1 553.745 1123.94 559.427 1131.95 562.604C1139.96 565.782 1152.41 571.263 1159.6 574.772C1166.79 578.292 1177.53 584.245 1183.47 587.996C1189.41 591.747 1198.24 597.609 1203.08 601.029C1207.92 604.458 1217.65 612.03 1224.7 617.872C1231.75 623.725 1242.34 633.137 1248.22 638.809C1254.1 644.481 1263.04 653.903 1268.08 659.756C1273.11 665.608 1282.27 677.595 1288.42 686.404C1294.57 695.213 1306.51 713.274 1314.94 726.548C1323.37 739.822 1338.08 762.448 1347.63 776.828C1357.17 791.208 1366.61 805.91 1368.59 809.51C1370.58 813.11 1372.22 816.61 1372.23 817.303C1372.24 817.997 1371.58 818.792 1370.74 819.063C1369.91 819.335 1363.24 820.019 1355.91 820.562C1348.58 821.105 1337.39 822.482 1331.03 823.619C1324.66 824.755 1313.13 827.309 1305.39 829.29C1297.65 831.271 1285.43 834.922 1278.24 837.415C1271.05 839.899 1259.51 844.414 1252.6 847.451C1245.69 850.488 1236.19 855.044 1231.49 857.568C1226.79 860.102 1218.2 865.08 1212.39 868.639C1206.57 872.209 1195.72 879.681 1188.26 885.252C1179.25 891.989 1168.9 901.151 1157.46 912.534C1147.99 921.967 1136.5 934.436 1131.92 940.238C1127.35 946.041 1119.98 956.227 1115.53 962.864C1111.1 969.501 1104.31 980.583 1100.44 987.502C1096.57 994.41 1090.84 1005.72 1087.69 1012.64C1084.54 1019.55 1079.93 1030.41 1077.43 1036.78C1074.92 1043.14 1070.59 1055.35 1067.79 1063.93C1065 1072.51 1061.35 1084.94 1059.69 1091.58C1058.03 1098.22 1055.93 1107.72 1055.01 1112.7C1054.11 1117.68 1052.72 1122.77 1051.94 1124.01C1051.15 1125.26 1048.81 1126.84 1046.74 1127.53C1044.07 1128.43 1034.6 1128.78 1014.31 1128.77C997.282 1128.76 981.376 1128.23 975.102 1127.46C969.301 1126.75 959.115 1125.27 952.479 1124.17C945.844 1123.07 934.08 1120.62 926.338 1118.72C918.596 1116.83 905.706 1113.07 897.683 1110.37C889.659 1107.66 878.127 1103.41 872.044 1100.9C865.961 1098.41 854.429 1093.08 846.405 1089.07C838.382 1085.06 826.166 1078.37 819.258 1074.21C812.341 1070.06 802.397 1063.67 797.139 1060.02C791.88 1056.37 783.294 1050.03 778.035 1045.94C772.777 1041.84 763.507 1034.09 757.424 1028.7C751.341 1023.32 741.166 1013.54 734.801 1006.97C728.437 1000.4 719.81 990.961 715.617 985.993C711.415 981.015 704.407 972.206 700.033 966.404C695.649 960.612 688.099 949.53 683.242 941.767C678.386 934.014 671.298 921.333 667.477 913.59C663.666 905.847 660.288 898.264 659.966 896.746C659.534 894.674 659.836 893.83 661.153 893.397C662.118 893.076 678.295 892.402 697.097 891.899C715.899 891.386 738.743 890.27 747.872 889.405C757.001 888.54 772.154 886.539 781.554 884.96C790.955 883.382 806.791 880.214 816.745 877.921C826.699 875.628 844.565 871.073 856.46 867.815C868.354 864.547 886.452 859.358 896.677 856.271C906.903 853.193 922.065 848.899 930.36 846.727C938.655 844.565 952.228 841.388 960.523 839.688C968.818 837.979 981.034 835.716 987.67 834.66C994.306 833.614 1005.85 832.056 1013.31 831.211C1020.77 830.366 1036.15 829.149 1047.49 828.506C1060.07 827.792 1078.48 827.581 1094.75 827.973C1109.41 828.325 1128.4 829.059 1136.98 829.602C1145.55 830.155 1152.66 830.497 1152.79 830.366C1152.92 830.235 1149.76 829.039 1145.76 827.721C1141.75 826.394 1131.03 823.78 1121.9 821.909C1112.77 820.029 1097.62 817.404 1088.21 816.067C1078.81 814.739 1065.01 813.09 1057.55 812.416C1050.09 811.742 1034.02 811.199 1021.85 811.199C1008.22 811.209 993.763 811.853 984.151 812.889C975.585 813.814 962.011 815.493 953.988 816.63C945.964 817.766 927.193 820.672 912.262 823.096C897.331 825.509 876.971 828.627 867.017 830.024C857.063 831.422 841.901 833.282 833.335 834.157C824.768 835.032 807.796 836.018 795.631 836.339C782.66 836.681 765.397 836.43 753.905 835.726C743.116 835.072 728.869 833.866 722.233 833.051C715.597 832.237 704.739 830.658 698.103 829.531C691.467 828.415 680.608 826.203 673.972 824.624C667.336 823.045 656.025 819.858 648.836 817.535C641.647 815.222 630.788 811.29 624.705 808.826C618.623 806.352 607.311 801.083 599.569 797.111C591.827 793.149 579.611 785.989 572.422 781.202C565.234 776.416 554.375 768.501 548.292 763.614C542.209 758.727 531.119 748.611 523.659 741.139C516.188 733.667 506.465 723.199 502.042 717.89C497.618 712.57 490.64 703.52 486.538 697.778C482.425 692.025 475.277 680.994 470.652 673.251C466.017 665.508 458.214 651.027 453.308 641.072C448.401 631.116 440.227 613.247 435.16 601.35C430.092 589.454 420.37 565.702 413.553 548.556C406.736 531.411 398.602 510.142 395.465 501.293C392.338 492.444 389.472 483.946 389.1 482.418C388.587 480.296 388.789 479.632 389.935 479.672C390.759 479.703 394.158 481.251 397.476 483.132C400.794 485.002 415.051 493.489 429.147 501.997C443.243 510.494 465.192 522.712 477.911 529.138C490.63 535.564 507.592 543.629 515.615 547.068C523.638 550.497 537.212 555.937 545.778 559.135C554.345 562.343 568.149 567.079 576.444 569.664C584.739 572.248 599.217 576.351 608.618 578.774C618.019 581.208 630.909 584.315 637.273 585.683C643.638 587.041 655.17 589.303 662.912 590.701C670.654 592.099 686.49 594.593 698.103 596.252C709.716 597.911 728.94 600.174 740.834 601.28C752.728 602.386 778.287 604.437 797.641 605.845C816.996 607.253 841.65 609.093 852.438 609.948C863.226 610.793 881.093 612.382 892.153 613.488C903.213 614.584 919.501 616.394 928.349 617.51C937.197 618.627 951.454 620.618 960.02 621.955C968.587 623.282 982.844 625.786 991.692 627.526C1000.54 629.256 1013.21 631.961 1019.84 633.53C1026.48 635.098 1038.7 638.286 1046.99 640.609C1055.29 642.932 1070.67 647.769 1081.18 651.359C1091.68 654.949 1105.48 660.118 1111.84 662.853C1118.21 665.578 1128.6 670.566 1134.97 673.935C1141.33 677.293 1150.15 682.352 1154.57 685.167C1159 687.983 1166.47 693.011 1171.16 696.329C1175.86 699.648 1184.01 705.842 1189.26 710.086C1194.51 714.33 1204.69 723.109 1211.88 729.585C1219.07 736.061 1227.64 743.683 1230.93 746.529C1236.54 751.366 1236.79 751.477 1234.95 748.349C1233.87 746.509 1229.46 740.626 1225.14 735.276C1220.82 729.917 1212.45 720.172 1206.53 713.596C1200.63 707.029 1191.49 697.526 1186.24 692.478C1180.99 687.44 1171.48 679.063 1165.13 673.864C1158.77 668.675 1149.5 661.596 1144.52 658.147C1139.54 654.687 1131.17 649.247 1125.92 646.059C1120.67 642.872 1109.8 636.969 1101.79 632.946C1093.77 628.934 1081.78 623.373 1075.14 620.598C1068.51 617.822 1054.25 612.563 1043.47 608.902C1032.69 605.252 1015.49 599.812 1005.27 596.825C995.04 593.828 979.204 589.534 970.075 587.292C960.945 585.039 943.984 581.198 932.371 578.764C920.758 576.321 899.945 572.268 886.12 569.774C872.296 567.27 836.773 561.146 807.193 556.169C777.613 551.191 740.733 544.825 725.25 542.01C709.766 539.194 692.12 535.815 686.037 534.508C679.954 533.191 669.317 530.697 662.41 528.967C655.492 527.237 641.466 523.376 631.241 520.399C621.015 517.423 605.853 512.646 597.559 509.79C589.264 506.944 574.102 501.313 563.876 497.291C553.651 493.268 539.394 487.375 532.205 484.208C525.016 481.03 509.411 473.528 497.517 467.545C485.633 461.561 469.566 452.954 461.824 448.428C454.082 443.893 441.192 435.888 433.169 430.629C425.145 425.37 413.382 417.174 407.027 412.428C400.673 407.671 388.698 398.118 380.423 391.199C372.148 384.271 358.847 372.274 350.863 364.531C342.88 356.788 331.378 344.791 325.295 337.882C319.212 330.964 309.439 318.897 303.577 311.043C297.706 303.199 288.868 290.307 283.931 282.383C278.994 274.469 271.433 261.205 267.14 252.909C262.847 244.613 256.985 232.395 254.12 225.758C251.264 219.121 246.458 207.124 243.462 199.109C240.466 191.085 235.74 177.056 232.975 167.936C230.21 158.815 225.957 143.419 223.534 133.745C221.111 124.061 217.552 108.454 215.621 99.0518C213.691 89.6495 210.504 72.6749 208.543 61.3418C206.572 49.9986 203.827 33.1447 202.44 23.8831C201.042 14.6215 199.906 5.45037 199.906 3.51961C199.906 1.5788 200.359 0 200.912 0ZM509.804 621.462C513.111 627.265 519.717 637.904 524.483 645.094C529.259 652.284 536.749 662.692 541.143 668.223C545.537 673.754 554.596 683.729 561.282 690.396C567.958 697.053 577.279 705.561 581.974 709.292C586.67 713.033 594.814 718.955 600.072 722.465C605.321 725.975 614.601 731.606 620.684 734.985C626.767 738.374 637.173 743.371 643.809 746.097C650.445 748.832 659.946 752.392 664.923 754.031C669.9 755.66 678.718 758.164 684.529 759.582C690.331 761.01 700.737 763.071 707.654 764.167C714.562 765.263 725.421 766.732 731.785 767.446C738.934 768.25 756.398 768.743 777.533 768.743C796.536 768.753 818.856 768.18 827.805 767.456C836.653 766.742 850.447 765.495 858.471 764.68C866.484 763.876 889.338 761.191 909.245 758.727C929.153 756.253 954.49 753.347 965.55 752.271C976.61 751.185 994.929 749.757 1006.27 749.093C1018.48 748.379 1035.29 748.148 1047.49 748.52C1058.84 748.862 1072.63 749.616 1078.16 750.19C1083.69 750.763 1095.22 752.392 1103.8 753.81C1112.37 755.217 1128.43 758.637 1139.49 761.402C1150.55 764.157 1168.2 769.276 1178.7 772.775C1189.21 776.285 1203.24 781.484 1209.87 784.35C1216.51 787.216 1223.41 790.202 1225.21 790.987C1227.01 791.771 1228.49 792.073 1228.52 791.661C1228.54 791.248 1226.84 789.318 1224.75 787.367C1222.65 785.416 1218 781.725 1214.4 779.161C1210.8 776.597 1202.88 771.367 1196.8 767.536C1190.72 763.715 1179.18 756.917 1171.16 752.452C1163.15 747.977 1151.15 741.833 1144.52 738.796C1137.88 735.759 1128.83 731.827 1124.41 730.067C1119.99 728.308 1110.71 724.929 1103.8 722.566C1096.88 720.192 1086.25 716.854 1080.17 715.134C1074.09 713.415 1063 710.629 1055.54 708.93C1048.08 707.24 1034.27 704.535 1024.87 702.926C1015.47 701.317 1000.54 699.085 991.692 697.948C982.844 696.822 965.651 695.012 953.485 693.926C941.319 692.85 923.905 691.492 914.775 690.909C905.646 690.336 882.571 689.17 863.498 688.335C844.415 687.49 818.625 686.113 806.188 685.268C793.74 684.423 772.475 682.613 758.932 681.245C745.379 679.878 724.797 677.384 713.184 675.694C701.571 674.005 683.021 670.837 671.961 668.635C660.901 666.443 644.613 662.813 635.765 660.56C626.917 658.318 610.398 653.4 599.067 649.629C587.725 645.858 571.89 639.996 563.876 636.597C555.853 633.208 538.71 624.992 525.77 618.355C505.822 608.128 502.363 606.64 503.027 608.601C503.449 609.868 506.506 615.66 509.804 621.462Z" fill="#FFDB9F"/>
<path fill-rule="evenodd" clip-rule="evenodd" d="M1519.05 2367.78C1527.62 2368.02 1538.7 2368.68 1543.68 2369.23C1548.66 2369.78 1557.47 2371.18 1563.29 2372.35C1569.1 2373.5 1577.91 2375.79 1582.89 2377.42C1587.87 2379.03 1596.01 2382.29 1600.99 2384.64C1605.97 2386.99 1613.89 2391.4 1618.58 2394.45C1623.28 2397.51 1631.2 2403.42 1636.18 2407.59C1641.16 2411.78 1649.5 2419.66 1654.73 2425.13C1659.95 2430.59 1666.9 2438.69 1670.17 2443.11C1673.44 2447.54 1678.54 2456.13 1681.49 2462.22C1684.45 2468.3 1688.94 2479.38 1691.46 2486.85C1693.99 2494.33 1696.7 2503.6 1697.47 2507.47C1698.25 2511.34 1699.18 2520.61 1699.54 2528.08C1699.92 2535.81 1699.72 2547.95 1699.08 2556.24C1698.45 2564.26 1697.1 2574.66 1696.07 2579.37C1695.05 2584.08 1692.98 2591.54 1691.47 2595.96C1689.96 2600.39 1686.27 2609.22 1683.26 2615.57C1680.26 2621.93 1674.48 2632.11 1670.41 2638.2C1666.35 2644.28 1659.85 2652.88 1655.97 2657.3C1652.09 2661.73 1645.44 2668.3 1641.21 2671.89C1636.97 2675.48 1630.04 2680.83 1625.79 2683.77C1621.55 2686.71 1614.46 2691.09 1610.04 2693.52C1605.61 2695.94 1597.25 2699.81 1591.44 2702.11C1585.63 2704.43 1575.9 2707.58 1569.82 2709.13C1563.74 2710.68 1552.2 2712.71 1544.18 2713.64C1533.15 2714.92 1523.97 2715.23 1506.48 2714.91C1485.61 2714.51 1482.17 2714.2 1471.29 2711.67C1464.65 2710.13 1454.02 2707.07 1447.66 2704.89C1441.29 2702.71 1430.9 2698.43 1424.53 2695.4C1418.17 2692.35 1408.67 2686.97 1403.42 2683.44C1398.17 2679.91 1390.59 2674.17 1386.58 2670.69C1382.58 2667.2 1376.33 2660.94 1372.7 2656.8C1369.07 2652.65 1363.21 2644.96 1359.68 2639.71C1356.15 2634.45 1351.23 2625.85 1348.74 2620.6C1346.25 2615.34 1342.78 2606.74 1341.03 2601.49C1339.28 2596.23 1336.78 2586.73 1335.48 2580.38C1334.19 2574.02 1332.65 2564.05 1332.06 2558.25C1331.49 2552.44 1331.02 2540.8 1331.02 2532.36C1331.03 2520.85 1331.55 2514.45 1333.11 2506.72C1334.26 2501.04 1336.81 2491.43 1338.78 2485.35C1340.75 2479.26 1345.47 2468.18 1349.27 2460.71C1353.07 2453.24 1359.06 2443.29 1362.58 2438.59C1366.1 2433.88 1374.38 2424.83 1380.98 2418.47C1387.58 2412.12 1397.26 2403.86 1402.47 2400.14C1407.69 2396.41 1417.85 2390.45 1425.04 2386.89C1432.23 2383.32 1443.08 2378.82 1449.17 2376.89C1455.25 2374.96 1465.2 2372.43 1471.29 2371.27C1477.37 2370.11 1487.09 2368.76 1492.9 2368.24C1498.72 2367.74 1510.47 2367.53 1519.05 2367.78ZM1479.08 2442.87C1474.24 2444.67 1466.69 2448.17 1462.32 2450.66C1457.72 2453.27 1450.76 2458.58 1445.86 2463.22C1441.19 2467.65 1435.25 2474.44 1432.67 2478.31C1430.08 2482.18 1426.46 2488.97 1424.61 2493.39C1422.77 2497.82 1420.14 2505.73 1418.77 2510.99C1416.92 2518.12 1416.16 2524.23 1415.75 2535.12C1415.32 2546.37 1415.61 2552.12 1416.96 2560.26C1417.94 2566.07 1419.87 2574.21 1421.26 2578.36C1422.64 2582.51 1425.37 2589.07 1427.31 2592.95C1429.25 2596.82 1432.67 2602.7 1434.91 2606.02C1437.14 2609.34 1441.95 2615.04 1445.58 2618.7C1449.21 2622.35 1455.35 2627.4 1459.22 2629.92C1463.09 2632.44 1469.66 2635.88 1473.8 2637.55C1477.95 2639.23 1484.51 2641.41 1488.38 2642.38C1493.94 2643.78 1499.54 2644.15 1515.02 2644.13C1532.07 2644.1 1535.69 2643.81 1542.67 2641.89C1547.1 2640.67 1553.88 2638.18 1557.76 2636.36C1561.63 2634.54 1567.73 2631.07 1571.33 2628.65C1574.93 2626.24 1581.29 2620.84 1585.49 2616.66C1589.67 2612.46 1594.93 2606.32 1597.16 2603C1599.39 2599.68 1602.81 2593.8 1604.76 2589.93C1606.7 2586.06 1609.43 2579.27 1610.83 2574.85C1612.23 2570.42 1613.93 2562.96 1614.61 2558.25C1615.39 2552.92 1615.64 2544.78 1615.29 2536.63C1614.94 2528.56 1613.97 2520.67 1612.74 2516.02C1611.65 2511.86 1609.36 2504.86 1607.66 2500.43C1605.96 2496.01 1602.19 2488.54 1599.29 2483.84C1596.4 2479.13 1590.39 2471.51 1585.95 2466.88C1581.5 2462.26 1574.01 2455.9 1569.32 2452.74C1564.62 2449.59 1557.04 2445.56 1552.48 2443.81C1547.91 2442.04 1541.36 2439.89 1537.9 2439.03C1534.34 2438.13 1525.51 2437.27 1517.54 2437.04C1507.74 2436.75 1501.09 2437.08 1495.67 2438.1C1491.39 2438.93 1483.92 2441.07 1479.08 2442.87ZM472.551 2372.22L505.902 2372.33C524.241 2372.38 543.294 2372.72 557.23 2373.72L569.134 2401.38C575.68 2416.58 595.487 2462.07 613.152 2502.44C630.818 2542.82 658.568 2605.95 674.816 2642.72C691.074 2679.5 704.205 2709.94 703.994 2710.35C703.793 2710.76 684.519 2711.11 618.672 2711.12L617.023 2708.35C616.118 2706.82 613.454 2701.05 611.111 2695.52C608.769 2689.99 603.259 2676.18 598.865 2664.85C594.471 2653.5 590.57 2643.88 590.198 2643.46C589.816 2643.04 555.49 2643.03 438.306 2644.23L412.527 2711.61L373.827 2711.51C352.552 2711.45 332.986 2711.11 325.586 2710.1L329.517 2701.3C331.679 2696.46 346.66 2662.63 362.817 2626.13C378.965 2589.63 400.542 2540.76 410.767 2517.53C420.992 2494.3 436.707 2458.09 445.686 2437.08C454.665 2416.06 464.387 2392.87 467.283 2385.54L472.551 2372.22ZM503.75 2480.32C499.899 2490.83 491.092 2514.36 484.164 2532.61C477.247 2550.86 470.742 2568.15 469.716 2571.01C468.691 2573.88 468.228 2576.59 468.691 2577.05C469.153 2577.5 488.156 2578.02 510.919 2578.21C534.688 2578.4 553.811 2578.15 555.832 2577.62C558.617 2576.88 559.301 2576.22 559.1 2574.5C558.959 2573.31 554.716 2561.58 549.659 2548.45C544.601 2535.31 534.939 2510.76 528.193 2493.89C521.446 2477.02 515.232 2461.87 514.388 2460.21C512.94 2457.34 512.809 2457.29 511.804 2459.2C511.221 2460.31 507.591 2469.81 503.75 2480.32ZM740.502 2372.22H824.285L824.335 2463.47C824.356 2513.66 824.808 2571.7 825.341 2592.44C825.864 2613.18 826.638 2632.54 827.804 2640.73L988.172 2640.71V2712.11H866.514C770.072 2712.11 744.765 2711.85 744.443 2710.85C744.212 2710.16 743.528 2674.52 742.915 2631.66C742.301 2588.79 741.507 2512.89 741.145 2462.97L740.502 2372.22ZM995.22 2372.38C1010.98 2372.29 1029.41 2372.55 1048.46 2373.72L1058.18 2397.86C1063.53 2411.13 1078.3 2447.1 1090.99 2477.8C1103.68 2508.5 1120.63 2549.67 1128.64 2569.31C1136.67 2588.94 1143.62 2605.81 1144.13 2606.77C1144.62 2607.74 1145.48 2608.53 1146.04 2608.53C1146.59 2608.53 1147.98 2606.38 1149.12 2603.76C1150.28 2601.13 1156.92 2585.17 1163.87 2568.31C1170.84 2551.43 1191.59 2500.53 1243.46 2372.72H1283.68C1309.08 2372.72 1324.3 2373.09 1325.01 2373.72C1325.8 2374.45 1325.14 2377.28 1322.66 2383.78C1320.77 2388.76 1312.21 2408.89 1303.63 2428.53C1295.05 2448.16 1277.98 2487.76 1265.69 2516.52C1253.41 2545.28 1231.24 2597.77 1216.43 2633.17C1201.62 2668.57 1188.29 2700.24 1186.81 2703.56C1185.32 2706.88 1183.57 2709.93 1182.92 2710.33C1182.26 2710.74 1164.08 2711.07 1142.52 2711.07C1120.95 2711.07 1102.4 2710.85 1101.29 2710.57C1100.19 2710.3 1098.55 2708.38 1097.65 2706.32C1096.76 2704.25 1067.86 2635.13 1033.44 2552.72C999.011 2470.31 968.405 2396.66 965.429 2389.06C962.463 2381.46 960.03 2374.78 960.03 2374.23C960.03 2373.67 961.498 2373.07 963.298 2372.88C965.087 2372.69 979.455 2372.47 995.22 2372.38ZM1760.5 2372.07L1851.17 2372.53C1925.24 2372.91 1943.49 2373.27 1950.89 2374.5C1955.87 2375.32 1962.88 2376.78 1966.48 2377.74C1970.07 2378.69 1977.08 2381.26 1982.06 2383.43C1987.04 2385.6 1994.73 2389.51 1999.15 2392.12C2003.58 2394.71 2010.36 2399.36 2014.24 2402.43C2018.11 2405.5 2023.76 2410.93 2026.81 2414.5C2029.86 2418.07 2034 2423.7 2036.02 2427.02C2038.04 2430.34 2041.09 2436.56 2042.8 2440.85C2044.51 2445.13 2046.84 2453.06 2047.98 2458.45C2049.39 2465.07 2050.24 2473.8 2050.62 2485.35C2051.05 2498.51 2050.78 2505.11 2049.48 2514.01C2048.54 2520.36 2046.45 2529.64 2044.81 2534.62C2043.18 2539.6 2039.78 2547.29 2037.27 2551.72C2034.76 2556.14 2030.13 2562.89 2026.98 2566.7C2023.84 2570.52 2018.33 2576.35 2014.74 2579.67C2011.14 2582.98 2004.46 2588.12 1999.91 2591.09C1995.34 2594.04 1991.61 2596.92 1991.61 2597.47C1991.61 2598.02 1992.14 2599.49 1992.78 2600.74C1993.42 2601.99 2000.28 2612.96 2008.01 2625.13C2015.75 2637.29 2031.05 2660.82 2042.01 2677.42C2052.96 2694.01 2061.93 2708.15 2061.95 2708.84C2061.97 2709.54 2060.52 2710.3 2058.73 2710.55C2056.93 2710.79 2046.18 2711.22 2034.85 2711.51C2023.51 2711.79 2004.57 2711.7 1992.78 2711.31C1971.49 2710.61 1971.31 2710.58 1969.29 2708.09C1968.17 2706.7 1962.41 2697.43 1956.47 2687.47C1950.54 2677.52 1938.5 2656.83 1913.69 2613.63L1908.66 2613.14C1905.9 2612.86 1890.17 2612.39 1843.81 2611.55V2712.11L1760.86 2711.61L1760.5 2372.07ZM1842.08 2490.74C1842.29 2539.52 1842.42 2543.22 1844.1 2544.89C1845.75 2546.55 1848.76 2546.69 1883.81 2546.69C1917.29 2546.69 1922.67 2546.47 1929.77 2544.81C1934.19 2543.77 1940.07 2541.78 1942.84 2540.38C1945.6 2538.99 1950.13 2536.15 1952.89 2534.08C1955.66 2532.01 1959.62 2527.88 1961.68 2524.93C1963.75 2521.96 1966.43 2516.82 1967.62 2513.5C1969.24 2509.03 1969.93 2504.35 1970.27 2495.4C1970.56 2487.71 1970.27 2481.14 1969.44 2477.3C1968.75 2473.98 1966.7 2468.32 1964.9 2464.73C1962.76 2460.45 1959.61 2456.33 1955.76 2452.82C1952.52 2449.85 1947.16 2446.16 1943.84 2444.6C1940.53 2443.04 1935.33 2441.23 1932.28 2440.58C1928.79 2439.83 1911.14 2439.21 1884.31 2438.89L1841.86 2438.38L1842.08 2490.74Z" fill="black"/>
<path d="M1919.21 488.421C1921.7 486.712 1926.22 484.479 1929.27 483.484C1933.28 482.166 1937.01 481.754 1942.84 482.005C1949.11 482.277 1952.32 483.011 1957.42 485.334C1961.02 486.973 1966.15 490.332 1968.82 492.796C1971.97 495.682 1974.99 499.925 1977.37 504.762C1980.83 511.801 1981.05 512.827 1981.05 521.908C1981.05 530.978 1980.83 532.024 1977.39 539.053C1974.99 543.951 1972.02 548.114 1968.79 551.07C1966.09 553.564 1961.74 556.611 1959.14 557.858C1956.53 559.105 1952.48 560.563 1950.13 561.106C1947.78 561.639 1943.48 562.092 1940.58 562.112C1937.67 562.122 1932.58 561.227 1929.27 560.121C1925.95 559.014 1921.53 557.043 1919.46 555.746C1917.39 554.439 1914.1 551.613 1912.15 549.461C1910.21 547.299 1907.65 543.951 1906.47 542.02C1905.29 540.089 1903.6 536.006 1902.71 532.969C1901.82 529.932 1901.09 524.945 1901.09 521.908C1901.09 518.871 1901.82 513.883 1902.71 510.846C1903.6 507.809 1905.26 503.726 1906.39 501.796C1907.54 499.855 1909.87 496.758 1911.58 494.907C1913.29 493.057 1916.73 490.141 1919.21 488.421Z" fill="#D9D9D9"/>
<path fill-rule="evenodd" clip-rule="evenodd" d="M1103.3 1299.03L1105.17 1301.4C1106.2 1302.7 1108.81 1307.27 1110.95 1311.56C1113.1 1315.84 1118.1 1324.67 1122.06 1331.17C1126.02 1337.66 1133.22 1348.87 1138.06 1356.06C1142.9 1363.25 1148.04 1370.26 1149.49 1371.64C1150.93 1373.03 1152.1 1375.17 1152.09 1376.42C1152.07 1377.67 1150.98 1380.83 1149.68 1383.46C1148.37 1386.08 1143.53 1392.98 1138.94 1398.79C1134.34 1404.61 1127.67 1412.75 1124.09 1416.89C1120.52 1421.05 1110.54 1432.08 1101.9 1441.41C1093.27 1450.74 1079.2 1465.02 1070.62 1473.14C1062.04 1481.25 1050.06 1492.35 1043.98 1497.8C1037.89 1503.26 1025.22 1514.13 1015.82 1521.97C1006.42 1529.81 992.396 1541.21 984.654 1547.29C976.912 1553.36 962.655 1564.22 952.983 1571.41C943.3 1578.6 927.927 1589.7 918.798 1596.05C909.668 1602.42 896.547 1611.4 889.64 1616.02C882.722 1620.64 867.57 1630.36 855.957 1637.63C844.345 1644.9 826.247 1655.85 815.74 1661.97C805.233 1668.08 789.397 1677.05 780.549 1681.9C771.701 1686.75 753.604 1696.22 740.332 1702.94C727.06 1709.67 708.057 1718.93 698.103 1723.53C688.149 1728.14 670.725 1735.86 659.394 1740.69C648.062 1745.52 636.409 1750.67 633.503 1752.12C630.598 1753.58 627.994 1755.23 627.722 1755.78C627.451 1756.34 632.759 1759.43 639.536 1762.65C646.313 1765.88 656.377 1770.45 671.962 1777.1L685.535 1772.1C692.995 1769.35 704.085 1764.92 710.168 1762.27C716.251 1759.61 730.277 1752.85 741.337 1747.23C752.397 1741.62 767.78 1733.49 775.522 1729.16C783.264 1724.84 799.783 1715.2 812.221 1707.73C824.658 1700.27 843.219 1688.64 853.444 1681.88C863.669 1675.12 881.094 1663.13 892.153 1655.21C903.213 1647.31 918.818 1635.83 926.841 1629.73C934.865 1623.62 949.343 1612.27 959.015 1604.51C968.688 1596.76 984.302 1583.8 993.703 1575.74C1003.1 1567.67 1018.7 1553.86 1028.37 1545.05C1038.03 1536.23 1056.38 1518.61 1069.14 1505.89C1081.9 1493.17 1097.98 1476.65 1104.85 1469.18C1111.74 1461.7 1123.71 1448.36 1131.45 1439.51C1139.18 1430.67 1148.8 1420.04 1152.81 1415.89C1160 1408.46 1160.14 1408.38 1161.87 1410.38C1162.84 1411.49 1164.85 1415.34 1166.35 1418.93C1167.85 1422.51 1174.69 1439.69 1181.56 1457.12C1188.44 1474.55 1202.27 1508.94 1212.31 1533.54C1222.35 1558.15 1230.43 1578.6 1230.27 1578.98C1230.11 1579.36 1221.55 1588.63 1211.25 1599.59C1200.94 1610.55 1188.54 1624.05 1183.69 1629.58C1178.84 1635.11 1169.62 1646.2 1163.2 1654.22C1156.78 1662.23 1147.65 1674.23 1142.9 1680.86C1138.15 1687.5 1130.64 1698.36 1126.22 1705C1121.79 1711.64 1112.73 1726.12 1106.08 1737.18C1099.44 1748.24 1088.74 1766.9 1082.3 1778.66C1075.88 1790.41 1059.83 1821.19 1046.64 1847.04C1033.46 1872.89 1017.54 1903.56 1011.28 1915.17C1005.01 1926.78 994.709 1945.34 988.364 1956.4C982.02 1967.46 972.528 1983.52 967.26 1992.1C961.991 2000.68 951.917 2016.28 944.879 2026.79C937.841 2037.3 927.203 2052.46 921.251 2060.48C915.299 2068.49 906.793 2079.59 902.339 2085.12C897.884 2090.65 886.985 2103.75 878.117 2114.24C869.249 2124.73 860.864 2134.36 859.477 2135.63C858.099 2136.91 856.289 2137.82 855.455 2137.67C854.429 2137.48 853.735 2135.61 853.293 2131.87C852.931 2128.83 852.589 2121.82 852.539 2116.29C852.479 2110.76 851.976 2101.26 851.413 2095.17C850.85 2089.09 849.482 2078.9 848.376 2072.55C847.26 2066.19 844.737 2055.1 842.746 2047.91C840.765 2040.72 837.216 2029.64 834.853 2023.27C832.501 2016.91 827.996 2005.83 824.859 1998.64C821.712 1991.45 816.856 1981.26 814.071 1976.01C811.286 1970.76 805.726 1961.48 801.724 1955.39C797.722 1949.31 790.865 1939.75 786.492 1934.16C782.118 1928.55 773.954 1918.6 768.353 1912.03C762.753 1905.46 750.738 1892.85 741.659 1884C732.59 1875.15 719.167 1863.16 711.848 1857.35C704.528 1851.54 693.237 1843.07 686.762 1838.53C680.277 1833.99 668.191 1826.24 659.896 1821.32C651.601 1816.4 640.964 1810.32 636.268 1807.79C631.573 1805.28 621.609 1800.42 614.149 1797C606.688 1793.58 595.146 1788.61 588.51 1785.98C581.874 1783.34 571.015 1779.33 564.379 1777.08C557.743 1774.83 546.653 1771.36 539.746 1769.37C532.829 1767.38 516.993 1763.08 504.556 1759.82C492.108 1756.57 474.694 1752.29 465.846 1750.33C456.998 1748.37 447.265 1746.31 444.229 1745.76C441.193 1745.19 437.794 1744.11 436.688 1743.33C434.768 1742 434.848 1741.85 438.699 1739.93C440.911 1738.83 456.526 1732.38 473.387 1725.62C490.248 1718.86 514.459 1708.89 527.178 1703.47C539.897 1698.05 559.805 1689.32 571.417 1684.07C583.03 1678.82 601.349 1670.37 612.138 1665.28C622.926 1660.19 647.348 1648.16 666.432 1638.56C685.515 1628.97 711.757 1615.39 724.747 1608.4C737.738 1601.41 759.918 1589.1 774.014 1581.06C788.11 1573 808.933 1560.76 820.264 1553.85C831.596 1546.94 850.156 1535.19 861.487 1527.73C872.819 1520.28 888.886 1509.4 897.181 1503.57C905.476 1497.73 920.175 1487 929.857 1479.71C939.53 1472.42 953.847 1461.31 961.65 1455.01C969.462 1448.7 982.583 1437.66 990.807 1430.48C999.042 1423.29 1014.16 1409.03 1024.42 1398.8C1034.67 1388.57 1047.15 1375.44 1052.14 1369.63C1057.14 1363.82 1064.76 1354.55 1069.07 1349.02C1073.39 1343.49 1082.87 1329.98 1090.11 1319L1103.3 1299.03ZM1085.14 1632.7C1077.37 1642.59 1059.28 1666.07 1044.96 1684.88C1030.63 1703.68 1011.02 1729.25 1001.35 1741.69C991.702 1754.14 973.323 1777.44 960.523 1793.48C947.714 1809.52 926.449 1835.77 913.258 1851.81C900.066 1867.85 883.798 1887.76 877.102 1896.05C870.416 1904.35 862.805 1914.19 860.19 1917.93L855.455 1924.71C857.767 1932.12 861.508 1940.38 865.248 1947.84C869.29 1955.92 872.638 1961.42 873.502 1961.42C874.307 1961.42 877.615 1958.25 880.862 1954.38C884.11 1950.51 892.897 1938.74 900.388 1928.23C907.879 1917.72 927.424 1888.99 943.813 1864.38C960.212 1839.77 983.528 1804.02 995.633 1784.93C1007.74 1765.86 1026.26 1736.67 1036.78 1720.07C1047.29 1703.48 1067.5 1672.26 1081.67 1650.69C1095.84 1629.12 1109.26 1608.53 1111.49 1604.93C1113.72 1601.34 1116.05 1597.38 1116.64 1596.13C1117.24 1594.9 1117.56 1593.87 1117.35 1593.87C1117.13 1593.87 1112.98 1598.57 1108.11 1604.29C1103.26 1610.02 1092.91 1622.8 1085.14 1632.7ZM935.438 1697.32C924.901 1707.47 909.497 1721.76 901.202 1729.08C892.907 1736.39 880.691 1746.84 874.055 1752.28C867.42 1757.72 855.203 1767.24 846.909 1773.42C838.614 1779.6 824.356 1789.64 815.237 1795.72C806.108 1801.81 788.241 1813.04 775.522 1820.67C762.803 1828.31 752.166 1834.75 751.894 1835C751.613 1835.24 755.685 1839.53 760.943 1844.52C766.192 1849.5 773.773 1856.24 777.784 1859.49L785.074 1865.38C792.474 1859.34 804.127 1848.54 815.74 1837.48C827.353 1826.43 855.636 1798.43 878.59 1775.26C901.554 1752.1 926.248 1726.59 933.477 1718.56C940.706 1710.55 952.239 1697.43 959.106 1689.4C965.973 1681.39 976.148 1669.17 981.718 1662.25C987.288 1655.34 995.372 1644.93 999.675 1639.12C1003.98 1633.32 1007.87 1627.78 1008.32 1626.8C1008.77 1625.84 1008.88 1625.04 1008.55 1625.04C1008.22 1625.04 995.945 1637.15 981.276 1651.94C966.606 1666.75 945.975 1687.16 935.438 1697.32V1697.32ZM1701.79 1338.79C1701.93 1339.71 1698.92 1347.37 1695.11 1355.79C1691.3 1364.23 1676.53 1395.8 1662.3 1425.93C1648.06 1456.08 1631.45 1491.38 1625.38 1504.37C1619.31 1517.37 1605.17 1547.91 1593.97 1572.25C1582.76 1596.59 1567.48 1629.62 1560.01 1645.66C1552.53 1661.7 1538.4 1691.8 1528.61 1712.53C1518.82 1733.28 1500.95 1771.51 1488.9 1797.5C1476.86 1823.5 1446.98 1887.99 1422.5 1940.8C1398.02 1993.63 1373.32 2046.46 1367.59 2058.21C1359.69 2074.41 1356.76 2079.52 1355.48 2079.32C1354.29 2079.15 1350.67 2071.56 1343.32 2053.93C1337.56 2040.11 1309.18 1972.23 1280.25 1903.09C1251.33 1833.96 1216.95 1751.83 1203.87 1720.58C1190.78 1689.33 1180.32 1663.2 1180.64 1662.5C1180.96 1661.82 1188.56 1652.99 1197.53 1642.89C1206.49 1632.81 1221.31 1617.04 1230.45 1607.86C1239.59 1598.68 1248.54 1590.42 1250.34 1589.51C1252.14 1588.59 1253.81 1587.96 1254.05 1588.09C1254.3 1588.23 1257.27 1595.58 1260.66 1604.43C1264.05 1613.28 1271.12 1632.52 1276.38 1647.17C1281.65 1661.83 1294.32 1697.13 1304.56 1725.6C1314.79 1754.09 1330.18 1796.18 1338.76 1819.12C1347.35 1842.08 1355.7 1863.8 1357.34 1867.39C1360.17 1873.62 1360.39 1873.84 1361.83 1871.92C1362.65 1870.81 1366.43 1863.57 1370.22 1855.83C1374.01 1848.09 1395.66 1800.8 1418.32 1750.74C1440.98 1700.7 1472.28 1631.46 1487.87 1596.89C1503.46 1562.32 1525.96 1512.09 1537.87 1485.26C1549.77 1458.45 1559.92 1435.37 1560.41 1433.98C1561.09 1432.09 1564.84 1429.6 1575.6 1423.92C1583.46 1419.78 1596 1412.82 1603.48 1408.46C1610.95 1404.09 1623.41 1396.35 1631.15 1391.25C1638.9 1386.15 1651.56 1377.24 1659.31 1371.45C1667.05 1365.66 1679.72 1355.56 1687.46 1349.02C1697.48 1340.55 1701.6 1337.6 1701.79 1338.79V1338.79Z" fill="#FFDB9F"/>
</svg>
